<mxfile host="app.diagrams.net" modified="2024-04-07T09:18:12.513Z" agent="Mozilla/5.0 (Windows NT 10.0; Win64; x64) AppleWebKit/537.36 (KHTML, like Gecko) Chrome/123.0.0.0 Safari/537.36" version="24.2.2" etag="ehoc1jjaAtw2Bbw7_yQo" type="github">
  <diagram name="第 1 页" id="h_Dyw-qcFIQlnrxSpb5I">
    <mxGraphModel>
      <root>
        <mxCell id="0" />
        <mxCell id="1" parent="0" />
      </root>
    </mxGraphModel>
  </diagram>
</mxfile>
